<svg width="21" height="20" viewBox="0 0 21 20" fill="none" xmlns="http://www.w3.org/2000/svg">
<path d="M20.379 5.88007C20.3321 4.81739 20.1603 4.08681 19.9141 3.45375C19.6601 2.78177 19.2694 2.18015 18.7575 1.68002C18.2574 1.17211 17.6518 0.777437 16.9876 0.527448C16.3509 0.281275 15.6241 0.109427 14.5615 0.0625734C13.4908 0.0117516 13.151 0 10.4356 0C7.72019 0 7.38031 0.0117516 6.31367 0.0586054C5.25099 0.105459 4.5204 0.27746 3.8875 0.52348C3.21536 0.777437 2.61374 1.16814 2.11361 1.68002C1.6057 2.18015 1.21118 2.78574 0.961042 3.44993C0.714869 4.08681 0.543021 4.81342 0.496167 5.8761C0.445345 6.94672 0.433594 7.2866 0.433594 10.002C0.433594 12.7174 0.445345 13.0572 0.492199 14.1239C0.539053 15.1866 0.711054 15.9172 0.957227 16.5502C1.21118 17.2222 1.6057 17.8238 2.11361 18.3239C2.61374 18.8319 3.21933 19.2265 3.88353 19.4765C4.5204 19.7227 5.24702 19.8945 6.30985 19.9414C7.37635 19.9884 7.71638 20 10.4318 20C13.1471 20 13.487 19.9884 14.5537 19.9414C15.6164 19.8945 16.3469 19.7227 16.9798 19.4765C18.3239 18.9569 19.3866 17.8942 19.9063 16.5502C20.1523 15.9133 20.3243 15.1866 20.3712 14.1239C20.418 13.0572 20.4298 12.7174 20.4298 10.002C20.4298 7.2866 20.4258 6.94672 20.379 5.88007ZM18.5779 14.0458C18.5349 15.0225 18.3708 15.55 18.2341 15.9016C17.898 16.7729 17.2065 17.4644 16.3352 17.8005C15.9836 17.9372 15.4523 18.1013 14.4793 18.1442C13.4244 18.1912 13.1081 18.2028 10.4395 18.2028C7.77102 18.2028 7.45067 18.1912 6.39959 18.1442C5.42283 18.1013 4.89539 17.9372 4.54375 17.8005C4.11016 17.6402 3.71549 17.3863 3.39515 17.0542C3.06305 16.7299 2.8091 16.3391 2.64885 15.9056C2.5121 15.5539 2.34804 15.0225 2.30515 14.0497C2.25814 12.9948 2.24654 12.6783 2.24654 10.0098C2.24654 7.34124 2.25814 7.02089 2.30515 5.96996C2.34804 4.99321 2.5121 4.46576 2.64885 4.11413C2.8091 3.68039 3.06305 3.28587 3.39912 2.96537C3.72328 2.63327 4.11398 2.37932 4.54772 2.21922C4.89935 2.08247 5.43077 1.91841 6.40356 1.87537C7.45845 1.82852 7.77498 1.81677 10.4434 1.81677C13.1159 1.81677 13.4322 1.82852 14.4833 1.87537C15.4601 1.91841 15.9875 2.08247 16.3392 2.21922C16.7727 2.37932 17.1674 2.63327 17.4878 2.96537C17.8199 3.28968 18.0738 3.68039 18.2341 4.11413C18.3708 4.46576 18.5349 4.99702 18.5779 5.96996C18.6248 7.02486 18.6365 7.34124 18.6365 10.0098C18.6365 12.6783 18.6248 12.9909 18.5779 14.0458Z" fill="#3E5066"/>
<path d="M10.4356 4.86426C7.59918 4.86426 5.29785 7.16543 5.29785 10.002C5.29785 12.8386 7.59918 15.1397 10.4356 15.1397C13.2722 15.1397 15.5733 12.8386 15.5733 10.002C15.5733 7.16543 13.2722 4.86426 10.4356 4.86426ZM10.4356 13.3347C8.59547 13.3347 7.10287 11.8423 7.10287 10.002C7.10287 8.16173 8.59547 6.66927 10.4356 6.66927C12.2759 6.66927 13.7683 8.16173 13.7683 10.002C13.7683 11.8423 12.2759 13.3347 10.4356 13.3347Z" fill="#3E5066"/>
<path d="M16.9762 4.6611C16.9762 5.32346 16.4391 5.86052 15.7766 5.86052C15.1142 5.86052 14.5771 5.32346 14.5771 4.6611C14.5771 3.99858 15.1142 3.46167 15.7766 3.46167C16.4391 3.46167 16.9762 3.99858 16.9762 4.6611Z" fill="#3E5066"/>
</svg>
