<svg width="32" height="32" viewBox="0 0 32 32" fill="none" xmlns="http://www.w3.org/2000/svg">
<path d="M14.5957 20.9051C12.7352 20.7111 11.0576 20.2528 9.62133 19.1295C9.44312 18.9898 9.25912 18.855 9.09649 18.6989C8.46784 18.0952 8.4045 17.4037 8.90194 16.6911C9.32749 16.0813 10.0419 15.9182 10.7844 16.2683C10.9281 16.3362 11.0651 16.4209 11.1963 16.5119C13.8731 18.3511 17.5502 18.4018 20.237 16.5946C20.5032 16.3905 20.7877 16.2241 21.1175 16.1391C21.7587 15.9745 22.3567 16.21 22.7008 16.771C23.0939 17.4117 23.0889 18.0371 22.6045 18.5346C21.8615 19.2972 20.9679 19.8489 19.9751 20.234C19.0362 20.598 18.0079 20.7812 16.9902 20.9029C17.1437 21.07 17.2161 21.1522 17.3122 21.2487C18.6941 22.6372 20.0821 24.02 21.4596 25.4127C21.9289 25.8873 22.0269 26.4757 21.7685 27.0277C21.486 27.631 20.8536 28.0279 20.2335 27.9854C19.8406 27.9583 19.5342 27.7627 19.2619 27.4885C18.2191 26.439 17.1566 25.409 16.1348 24.3397C15.8374 24.0288 15.6944 24.0876 15.432 24.3575C14.3828 25.4376 13.3166 26.5011 12.244 27.5586C11.7624 28.0334 11.1893 28.1189 10.6308 27.8477C10.0371 27.5599 9.65929 26.9538 9.68844 26.3448C9.70855 25.9328 9.91115 25.6181 10.1939 25.3358C11.5616 23.9702 12.9254 22.601 14.2898 21.2331C14.3801 21.1422 14.4643 21.0456 14.5957 20.9051Z" fill="#F2F2F2"/>
<path d="M15.7289 16.1479C12.4097 16.1366 9.68799 13.385 9.70735 10.0605C9.72645 6.69937 12.4499 3.99072 15.8018 4.00002C19.1605 4.00907 21.8563 6.75668 21.8394 10.1528C21.8223 13.4705 19.0818 16.1595 15.7289 16.1479ZM18.7455 10.0686C18.7397 8.41791 17.4251 7.1038 15.7777 7.1023C14.1164 7.10054 12.79 8.43852 12.8028 10.1043C12.8151 11.7487 14.1411 13.0535 15.793 13.0474C17.4399 13.0417 18.751 11.719 18.7455 10.0686Z" fill="#F2F2F2"/>
</svg>
