<svg width="32" height="32" viewBox="0 0 32 32" fill="none" xmlns="http://www.w3.org/2000/svg">
<path d="M4.42391 15.7339L9.95399 17.7979L12.0945 24.6817C12.2314 25.1226 12.7706 25.2855 13.1284 24.993L16.211 22.48C16.5341 22.2167 16.9943 22.2036 17.332 22.4487L22.8918 26.4853C23.2746 26.7635 23.817 26.5538 23.913 26.0912L27.9858 6.49991C28.0906 5.99463 27.5942 5.57311 27.113 5.75919L4.41743 14.5145C3.85735 14.7305 3.86223 15.5234 4.42391 15.7339ZM11.7495 16.6992L22.5574 10.0426C22.7516 9.92335 22.9514 10.186 22.7846 10.3407L13.865 18.6319C13.5515 18.9238 13.3493 19.3143 13.292 19.7382L12.9882 21.9899C12.9479 22.2906 12.5256 22.3204 12.4426 22.0294L11.2741 17.9234C11.1402 17.4551 11.3353 16.9549 11.7495 16.6992Z" fill="#F2F2F2"/>
</svg>
