<svg width="32" height="32" viewBox="0 0 32 32" fill="none" xmlns="http://www.w3.org/2000/svg">
<path d="M28 8.59219C27.1166 8.98361 26.1688 9.24906 25.173 9.36757C26.1898 8.75866 26.9682 7.79286 27.3371 6.64557C26.3833 7.20945 25.3304 7.6189 24.2086 7.84086C23.3103 6.88255 22.0326 6.28564 20.6153 6.28564C17.8963 6.28564 15.6917 8.49023 15.6917 11.2077C15.6917 11.5931 15.7352 11.9696 15.8192 12.3295C11.728 12.124 8.1002 10.1639 5.67216 7.18545C5.24773 7.91133 5.00628 8.75713 5.00628 9.66C5.00628 11.3682 5.87612 12.8754 7.19588 13.7572C6.38902 13.7302 5.63016 13.5083 4.9658 13.1393V13.2008C4.9658 15.5854 6.66349 17.5755 8.91455 18.0284C8.50212 18.1394 8.06722 18.2009 7.6173 18.2009C7.29937 18.2009 6.99192 18.1694 6.69047 18.1094C7.31734 20.0665 9.13502 21.4898 11.2886 21.5288C9.60443 22.8485 7.48083 23.6329 5.17428 23.6329C4.77686 23.6329 4.38541 23.6089 4 23.5654C6.1791 24.9647 8.76612 25.7805 11.5466 25.7805C20.6034 25.7805 25.554 18.2789 25.554 11.7731L25.5375 11.1358C26.5048 10.4458 27.3416 9.57902 28 8.59219Z" fill="#F2F2F2"/>
</svg>
