<svg width="32" height="32" viewBox="0 0 32 32" fill="none" xmlns="http://www.w3.org/2000/svg">
<g clip-path="url(#clip0)">
<path d="M24.3435 7.4612C22.6044 5.75628 19.7929 4.93018 15.9856 5.00462C12.1465 5.08012 9.58032 5.75395 7.90962 7.12525C6.29425 8.451 5.54192 10.391 5.54192 13.2304V16.1283C5.54192 19.4804 7.33814 23.1656 10.7712 23.7232C11.1675 23.788 11.5408 23.5186 11.6052 23.1222C11.6696 22.7259 11.4005 22.3525 11.0042 22.2881C8.40064 21.8652 6.9958 18.7988 6.9958 16.1283V13.2304C6.9958 9.15895 8.50445 6.60583 16.0141 6.45811C19.4186 6.39065 21.8758 7.07795 23.3255 8.49927C24.4551 9.60704 25.0043 11.1546 25.0043 13.2304V16.1283C25.0043 20.5165 23.0347 22.452 17.9829 23.0219H14.4007C14.2079 23.0219 14.023 23.0985 13.8867 23.2349L11.3627 25.7589C11.0788 26.0428 11.0788 26.5031 11.3627 26.787C11.5046 26.9289 11.6907 27 11.8767 27C12.0627 27 12.2488 26.929 12.3907 26.787L14.7019 24.4758H18.0235C18.0503 24.4758 18.0771 24.4744 18.1038 24.4714C20.9949 24.1503 22.9747 23.3978 24.3341 22.1033C25.7634 20.7421 26.4583 18.7876 26.4583 16.1282V13.2304C26.4583 10.7783 25.7468 8.83725 24.3435 7.4612Z" fill="#F2F2F2"/>
<path d="M16.4538 9.74822C16.4539 9.74822 16.4539 9.74822 16.4541 9.74822C17.6255 9.74822 18.7267 10.2045 19.5551 11.0328C20.3835 11.8612 20.8397 12.9627 20.8396 14.1342C20.8396 14.5357 21.165 14.8611 21.5665 14.8611C21.5666 14.8611 21.5666 14.8611 21.5666 14.8611C21.968 14.8611 22.2935 14.5358 22.2935 14.1343C22.2936 12.5744 21.6862 11.1078 20.5831 10.0048C19.4802 8.90177 18.0139 8.29443 16.4541 8.29443C16.454 8.29443 16.4537 8.29443 16.4536 8.29443C16.0522 8.29443 15.7268 8.61991 15.7268 9.02138C15.7269 9.42275 16.0523 9.74822 16.4538 9.74822Z" fill="#F2F2F2"/>
<path d="M16.4536 12.3045C17.4624 12.3047 18.2833 13.1254 18.2834 14.1341C18.2835 14.5356 18.6089 14.8611 19.0104 14.861C19.412 14.861 19.7374 14.5354 19.7373 14.1339C19.737 12.3238 18.2641 10.8509 16.4538 10.8506H16.4537C16.0523 10.8506 15.7269 11.176 15.7268 11.5774C15.7268 11.9789 16.0522 12.3045 16.4536 12.3045Z" fill="#F2F2F2"/>
<path d="M13.194 13.5501C12.8627 13.7767 12.7777 14.2291 13.0042 14.5605C13.2307 14.8918 13.6831 14.9767 14.0145 14.7502C14.2752 14.5721 14.8856 14.1547 14.8428 13.3204C14.8156 12.821 14.3652 12.108 13.9921 11.5978C13.4464 10.8513 12.9762 10.4017 12.5973 10.2623C12.2435 10.1306 11.8735 10.1278 11.4969 10.2541C10.7167 10.517 10.1503 10.992 9.85893 11.6279C9.57523 12.2468 9.58153 12.9582 9.87725 13.6854C10.5757 15.3989 11.5535 16.899 12.79 18.1505C14.035 19.3804 15.535 20.3582 17.2491 21.057C17.6201 21.2079 17.987 21.2834 18.3397 21.2834C18.678 21.2834 19.0032 21.214 19.3062 21.0751C19.942 20.7837 20.417 20.2173 20.6801 19.4362C20.8061 19.0604 20.8033 18.6907 20.6726 18.3393C20.5323 17.9577 20.0826 17.4875 19.3361 16.9418C18.8258 16.5688 18.1128 16.1183 17.6115 16.0911C16.7789 16.0492 16.362 16.6586 16.1838 16.9192C15.9572 17.2506 16.042 17.703 16.3734 17.9297C16.7049 18.1564 17.1571 18.0715 17.3839 17.7401C17.4629 17.6245 17.5081 17.5719 17.534 17.549C17.942 17.6797 19.1056 18.5346 19.3151 18.8622C19.3202 18.8831 19.3214 18.915 19.302 18.9731C19.2103 19.2454 19.0315 19.6018 18.7005 19.7535C18.3904 19.8954 18.0381 19.8084 17.7975 19.7106C16.2616 19.0844 14.9206 18.2115 13.818 17.1224C12.7226 16.0137 11.8498 14.6727 11.2239 13.1373C11.1258 12.8961 11.0387 12.5436 11.1807 12.2338C11.3324 11.9028 11.6889 11.7239 11.9603 11.6324C12.0182 11.613 12.0501 11.6141 12.0722 11.6194C12.3999 11.8293 13.2543 12.9922 13.3852 13.4004C13.3621 13.4258 13.3097 13.4711 13.194 13.5501Z" fill="#F2F2F2"/>
</g>
<defs>
<clipPath id="clip0">
<rect width="22" height="22" fill="white" transform="translate(5.00009 5)"/>
</clipPath>
</defs>
</svg>
