<svg width="20" height="20" viewBox="0 0 20 20" fill="none" xmlns="http://www.w3.org/2000/svg">
<rect x="0.825" y="0.825" width="18.35" height="18.35" rx="2.175" stroke="#3E5066" stroke-width="1.65"/>
<path d="M14.6175 10.5874C14.3911 10.3074 14.4559 10.1829 14.6175 9.93257C14.6204 9.92971 16.4889 7.40057 16.6814 6.54286L16.6826 6.54229C16.7782 6.22971 16.6826 6 16.22 6H14.6892C14.2996 6 14.1199 6.19714 14.0236 6.41771C14.0236 6.41771 13.2443 8.24514 12.1417 9.42971C11.7859 9.772 11.6214 9.88171 11.4271 9.88171C11.3315 9.88171 11.1827 9.772 11.1827 9.45943V6.54229C11.1827 6.16743 11.0736 6 10.751 6H8.3441C8.09968 6 7.95442 6.17486 7.95442 6.33771C7.95442 6.69314 8.50569 6.77486 8.56286 7.77486V9.94457C8.56286 10.42 8.47477 10.5074 8.27935 10.5074C7.759 10.5074 6.49604 8.67257 5.7476 6.57257C5.59651 6.16514 5.44892 6.00057 5.05632 6.00057H3.52502C3.08809 6.00057 3 6.19771 3 6.41829C3 6.808 3.52035 8.74571 5.41975 11.3057C6.68563 13.0531 8.46836 14 10.0901 14C11.0649 14 11.1839 13.7897 11.1839 13.428C11.1839 11.7583 11.0958 11.6006 11.584 11.6006C11.8104 11.6006 12.2001 11.7103 13.1101 12.5531C14.1502 13.5526 14.3211 14 14.9033 14H16.434C16.8704 14 17.0915 13.7897 16.9643 13.3749C16.6732 12.5023 14.7062 10.7074 14.6175 10.5874Z" fill="#3E5066"/>
</svg>
