<svg width="32" height="32" viewBox="0 0 32 32" fill="none" xmlns="http://www.w3.org/2000/svg">
<path d="M27.8728 21.5092C27.8437 21.4465 27.8166 21.3946 27.7915 21.353C27.3751 20.603 26.5793 19.6825 25.4047 18.5912L25.3799 18.5662L25.3675 18.5539L25.3549 18.5414H25.3423C24.8093 18.0332 24.4717 17.6915 24.3303 17.5166C24.0716 17.1833 24.0137 16.846 24.1551 16.5042C24.2549 16.246 24.6301 15.7007 25.2797 14.8675C25.6214 14.4259 25.892 14.072 26.0918 13.8054C27.5331 11.8893 28.158 10.6648 27.9663 10.1316L27.8919 10.007C27.8418 9.93201 27.7127 9.86339 27.5047 9.8008C27.2962 9.73834 27.0297 9.72801 26.7047 9.76964L23.106 9.7945C23.0477 9.77384 22.9645 9.77576 22.856 9.8008C22.7477 9.82583 22.6935 9.8384 22.6935 9.8384L22.6309 9.86969L22.5812 9.90728C22.5395 9.93214 22.4937 9.97587 22.4436 10.0384C22.3939 10.1006 22.3523 10.1737 22.319 10.257C21.9272 11.265 21.4817 12.2022 20.9818 13.0685C20.6735 13.5851 20.3904 14.0328 20.1319 14.4119C19.8737 14.7908 19.6571 15.07 19.4823 15.249C19.3073 15.4281 19.1493 15.5716 19.0074 15.68C18.8657 15.7885 18.7575 15.8343 18.6827 15.8175C18.6076 15.8008 18.5369 15.7841 18.47 15.7675C18.3534 15.6925 18.2597 15.5905 18.189 15.4614C18.118 15.3323 18.0702 15.1697 18.0452 14.974C18.0204 14.7781 18.0057 14.6096 18.0015 14.4679C17.9976 14.3264 17.9994 14.1263 18.0078 13.868C18.0165 13.6097 18.0204 13.4349 18.0204 13.3432C18.0204 13.0266 18.0265 12.683 18.0389 12.3123C18.0515 11.9416 18.0617 11.6479 18.0703 11.4315C18.0788 11.2149 18.0827 10.9857 18.0827 10.7441C18.0827 10.5025 18.068 10.313 18.0389 10.1755C18.0102 10.0382 17.9661 9.90488 17.9081 9.77563C17.8496 9.64652 17.7641 9.54664 17.6519 9.47574C17.5395 9.40493 17.3997 9.34873 17.2333 9.30698C16.7917 9.20706 16.2295 9.153 15.5462 9.1446C13.9968 9.12797 13.0013 9.22802 12.5597 9.44462C12.3848 9.53614 12.2265 9.66118 12.085 9.81936C11.935 10.0027 11.914 10.1027 12.0223 10.1192C12.5222 10.1941 12.8761 10.3732 13.0844 10.6564L13.1595 10.8065C13.2179 10.9148 13.2762 11.1065 13.3345 11.3814C13.3928 11.6562 13.4304 11.9603 13.4469 12.2933C13.4885 12.9016 13.4885 13.4222 13.4469 13.8553C13.4052 14.2886 13.3658 14.6259 13.3282 14.8675C13.2906 15.1091 13.2344 15.3049 13.1595 15.4548C13.0844 15.6047 13.0345 15.6964 13.0094 15.7297C12.9845 15.7629 12.9636 15.7839 12.9471 15.7921C12.8388 15.8336 12.7262 15.8547 12.6096 15.8547C12.4929 15.8547 12.3514 15.7964 12.1848 15.6797C12.0183 15.563 11.8454 15.4027 11.6663 15.1986C11.4871 14.9944 11.2851 14.7091 11.0601 14.3426C10.8353 13.9761 10.602 13.5429 10.3604 13.0431L10.1605 12.6806C10.0356 12.4474 9.86487 12.1079 9.64827 11.6623C9.43153 11.2165 9.23996 10.7853 9.07343 10.3688C9.00686 10.1939 8.90685 10.0607 8.77358 9.96904L8.71104 9.93144C8.66946 9.89818 8.60272 9.86286 8.51116 9.82522C8.41946 9.78763 8.32379 9.76066 8.22374 9.74408L4.79989 9.76894C4.45001 9.76894 4.21262 9.8482 4.08762 10.0065L4.0376 10.0814C4.0126 10.1231 4 10.1897 4 10.2814C4 10.3731 4.02499 10.4855 4.07502 10.6187C4.57484 11.7934 5.11838 12.9263 5.70564 14.0176C6.29291 15.1089 6.80323 15.988 7.23631 16.654C7.66947 17.3205 8.11099 17.9496 8.56087 18.5409C9.01076 19.1324 9.30855 19.5115 9.45425 19.678C9.60012 19.8449 9.7147 19.9696 9.79799 20.0529L10.1104 20.3527C10.3104 20.5527 10.604 20.7922 10.9913 21.0712C11.3788 21.3504 11.8078 21.6252 12.2784 21.8962C12.7492 22.1667 13.2969 22.3875 13.9217 22.5582C14.5465 22.7291 15.1546 22.7977 15.7461 22.7646H17.1832C17.4746 22.7395 17.6954 22.6478 17.8455 22.4896L17.8952 22.427C17.9286 22.3773 17.9599 22.3 17.9888 22.1961C18.0181 22.092 18.0326 21.9773 18.0326 21.8525C18.024 21.4943 18.0513 21.1716 18.1136 20.8842C18.1759 20.5969 18.2469 20.3803 18.3263 20.2344C18.4057 20.0887 18.4952 19.9657 18.5949 19.866C18.6947 19.7661 18.7659 19.7055 18.8077 19.6847C18.8491 19.6637 18.8823 19.6495 18.9073 19.641C19.1072 19.5744 19.3425 19.6389 19.6135 19.8348C19.8843 20.0306 20.1383 20.2723 20.3758 20.5596C20.6133 20.8472 20.8985 21.1698 21.2317 21.5279C21.5651 21.8862 21.8566 22.1525 22.1064 22.3277L22.3562 22.4777C22.523 22.5777 22.7396 22.6694 23.0063 22.7526C23.2724 22.8359 23.5056 22.8567 23.7058 22.8151L26.9046 22.7652C27.221 22.7652 27.4672 22.7128 27.6419 22.6089C27.8168 22.5047 27.9208 22.39 27.9543 22.2653C27.9877 22.1403 27.9895 21.9986 27.9607 21.8402C27.931 21.6821 27.9018 21.5716 27.8728 21.5092Z" fill="#F2F2F2"/>
</svg>
