<svg width="32" height="32" viewBox="0 0 32 32" fill="none" xmlns="http://www.w3.org/2000/svg">
<path fill-rule="evenodd" clip-rule="evenodd" d="M23.2957 8.67408C21.3661 6.74225 18.7999 5.67789 16.0661 5.67676C10.4327 5.67676 5.848 10.2614 5.84574 15.8962C5.84498 17.6975 6.31554 19.4559 7.20995 21.0058L5.76001 26.3018L11.178 24.8805C12.6708 25.6949 14.3515 26.124 16.0619 26.1245H16.0662C21.6989 26.1245 26.2842 21.5395 26.2863 15.9044C26.2874 13.1735 25.2254 10.6058 23.2957 8.67408ZM16.0661 24.3985H16.0626C14.5383 24.3979 13.0435 23.9882 11.739 23.2144L11.429 23.0303L8.21389 23.8737L9.07204 20.739L8.87 20.4176C8.01965 19.0651 7.57061 17.5019 7.57137 15.8969C7.57313 11.2133 11.3839 7.40289 16.0695 7.40289C18.3384 7.40365 20.4713 8.28837 22.0751 9.89403C23.6789 11.4997 24.5616 13.6339 24.5608 15.9038C24.5588 20.5877 20.7483 24.3985 16.0661 24.3985ZM20.7256 18.0364C20.4703 17.9085 19.2147 17.2909 18.9806 17.2056C18.7467 17.1203 18.5762 17.0779 18.4062 17.3335C18.2358 17.589 17.7465 18.1643 17.5975 18.3346C17.4484 18.5051 17.2996 18.5265 17.0442 18.3986C16.7888 18.2708 15.966 18.001 14.9905 17.131C14.2314 16.4539 13.719 15.6176 13.5699 15.3621C13.4211 15.1063 13.5687 14.9814 13.682 14.8409C13.9584 14.4976 14.2352 14.1377 14.3203 13.9674C14.4055 13.797 14.3629 13.6478 14.2989 13.52C14.2352 13.3923 13.7245 12.1353 13.5118 11.6238C13.3043 11.1261 13.0939 11.1933 12.9371 11.1855C12.7883 11.1781 12.618 11.1765 12.4477 11.1765C12.2775 11.1765 12.0008 11.2404 11.7666 11.4962C11.5326 11.7518 10.873 12.3696 10.873 13.6265C10.873 14.8835 11.788 16.0978 11.9157 16.2682C12.0433 16.4387 13.7164 19.0181 16.2781 20.1241C16.8874 20.3874 17.363 20.5444 17.7339 20.6621C18.3457 20.8565 18.9023 20.829 19.3424 20.7633C19.8331 20.6899 20.8531 20.1455 21.0661 19.549C21.2789 18.9525 21.2789 18.4412 21.2149 18.3346C21.1512 18.2281 20.9809 18.1643 20.7256 18.0364Z" fill="#F2F2F2"/>
</svg>
