<svg width="32" height="32" viewBox="0 0 32 32" fill="none" xmlns="http://www.w3.org/2000/svg">
<path d="M27.5853 10.1196C27.2915 8.84327 26.2475 7.90161 24.9907 7.76114C22.0146 7.42892 19.0023 7.42718 16.0038 7.42892C13.0049 7.42718 9.99213 7.42892 7.01601 7.76114C5.75996 7.90161 4.71672 8.84327 4.4229 10.1196C4.00471 11.9373 4 13.9215 4 15.7929C4 17.6644 4 19.6483 4.41819 21.4657C4.71151 22.7418 5.755 23.6835 7.0118 23.8242C9.98767 24.1567 13.0002 24.1584 15.9991 24.1567C18.9985 24.1584 22.0103 24.1567 24.986 23.8242C26.242 23.6838 27.2863 22.7421 27.5801 21.4657C27.9985 19.648 28 17.6641 28 15.7929C28 13.9215 28.0035 11.9373 27.5853 10.1196ZM12.9029 19.518C12.9029 16.8632 12.9029 14.2361 12.9029 11.5811C15.4464 12.9082 17.9731 14.2265 20.5328 15.5618C17.9811 16.8852 15.4531 18.1955 12.9029 19.518Z" fill="#F2F2F2"/>
</svg>
