<svg width="25" height="25" viewBox="0 0 25 25" fill="none" xmlns="http://www.w3.org/2000/svg">
<path d="M20.7315 2.70804H19.9783V1.8863C19.9783 0.845749 19.1572 0 18.1469 0C17.1358 0 16.3155 0.845749 16.3155 1.8863V2.70736H14.436V1.8863C14.436 0.845749 13.615 0 12.6046 0C11.5942 0 10.7732 0.845749 10.7732 1.8863V2.70736H8.89372V1.8863C8.89372 0.845749 8.07266 0 7.06229 0C6.05192 0 5.23087 0.845749 5.23087 1.8863V2.70736H4.2692C2.66207 2.70736 1.354 4.01542 1.354 5.62255V22.0848C1.354 23.6919 2.66207 25 4.2692 25H20.7315C22.3393 25 23.6466 23.6919 23.6466 22.0848V5.62255C23.6466 4.01611 22.3386 2.70804 20.7315 2.70804ZM17.3443 1.8863C17.3443 1.4137 17.7045 1.02889 18.1469 1.02889C18.59 1.02889 18.9494 1.4137 18.9494 1.8863V5.2446C18.9494 5.71721 18.59 6.10201 18.1469 6.10201C17.7045 6.10201 17.3443 5.71721 17.3443 5.2446V1.8863ZM11.8021 1.8863C11.8021 1.4137 12.1622 1.02889 12.6046 1.02889C13.047 1.02889 13.4071 1.4137 13.4071 1.8863V5.2446C13.4071 5.71721 13.047 6.10201 12.6046 6.10201C12.1622 6.10201 11.8021 5.71721 11.8021 5.2446V1.8863ZM6.25907 1.8863C6.25907 1.4137 6.61918 1.02889 7.06161 1.02889C7.50403 1.02889 7.86414 1.4137 7.86414 1.8863V5.2446C7.86414 5.71721 7.50403 6.10201 7.06161 6.10201C6.61918 6.10201 6.25907 5.71721 6.25907 5.2446V1.8863ZM21.9318 22.0855C21.9318 22.7474 21.3934 23.2859 20.7315 23.2859H4.2692C3.60728 23.2859 3.06882 22.7474 3.06882 22.0855V6.99509H21.9318V22.0855Z" fill="#3E5066"/>
<path d="M7.76399 10.0324H4.61215V12.8372H7.76399V10.0324Z" fill="#3E5066"/>
<path d="M11.9715 10.0324H8.81894V12.8372H11.9715V10.0324Z" fill="#3E5066"/>
<path d="M16.181 10.0324H13.0292V12.8372H16.181V10.0324Z" fill="#3E5066"/>
<path d="M20.3885 10.0324H17.236V12.8372H20.3885V10.0324Z" fill="#3E5066"/>
<path d="M7.76399 13.7762H4.61215V16.5789H7.76399V13.7762Z" fill="#3E5066"/>
<path d="M11.9715 13.7762H8.81894V16.5789H11.9715V13.7762Z" fill="#3E5066"/>
<path d="M16.181 13.7762H13.0292V16.5789H16.181V13.7762Z" fill="#3E5066"/>
<path d="M20.3885 13.7762H17.236V16.5789H20.3885V13.7762Z" fill="#3E5066"/>
<path d="M7.76399 17.5186H4.61215V20.3213H7.76399V17.5186Z" fill="#3E5066"/>
<path d="M11.9715 17.5186H8.81894V20.3213H11.9715V17.5186Z" fill="#3E5066"/>
<path d="M16.181 17.5186H13.0292V20.3213H16.181V17.5186Z" fill="#3E5066"/>
<path d="M20.3885 17.5186H17.236V20.3213H20.3885V17.5186Z" fill="#3E5066"/>
</svg>
