<svg width="25" height="25" viewBox="0 0 25 25" fill="none" xmlns="http://www.w3.org/2000/svg">
<path d="M12.5 0C5.60708 0 0 5.60708 0 12.5C0 19.3929 5.60708 25 12.5 25C19.3929 25 25 19.3919 25 12.5C25 5.60806 19.3929 0 12.5 0ZM12.5 23.0635C6.67603 23.0635 1.93647 18.325 1.93647 12.5C1.93647 6.67505 6.67603 1.93647 12.5 1.93647C18.325 1.93647 23.0635 6.67505 23.0635 12.5C23.0635 18.325 18.324 23.0635 12.5 23.0635Z" fill="#3E5066"/>
<path d="M18.0288 13.8362L13.1876 8.99496C12.81 8.61927 12.2 8.61927 11.8224 8.99496L6.98114 13.8362C6.67035 14.1983 6.67035 14.7337 6.98114 15.0958C7.32875 15.5015 7.94066 15.549 8.34638 15.2014L12.5001 11.0476L16.6636 15.2014C17.0412 15.5771 17.6512 15.5771 18.0288 15.2014C18.4045 14.8238 18.4045 14.2138 18.0288 13.8362Z" fill="#3E5066"/>
</svg>
