<svg width="17" height="17" viewBox="0 0 17 17" fill="none" xmlns="http://www.w3.org/2000/svg">
<g id="basic / heart">
<path id="icon" fill-rule="evenodd" clip-rule="evenodd" d="M11.7252 1.41664C10.6997 1.41663 10.0388 1.53879 9.28103 1.90968C9.00049 2.04699 8.7373 2.21236 8.49288 2.40529C8.25787 2.22318 8.00519 2.0654 7.73626 1.93239C6.96383 1.55034 6.26893 1.41663 5.28028 1.41663C2.63246 1.41663 0.708313 3.61052 0.708313 6.45987C0.708313 8.6117 1.90811 10.6903 4.14291 12.7003C5.31595 13.7553 6.81367 14.7994 7.88628 15.3548L8.49998 15.6726L9.11368 15.3548C10.1863 14.7994 11.684 13.7553 12.8571 12.7003C15.0918 10.6903 16.2916 8.6117 16.2916 6.45987C16.2916 3.64068 14.3494 1.4275 11.7252 1.41664ZM14.875 6.45988C14.875 8.14573 13.8735 9.88073 11.9097 11.647C10.839 12.61 9.46258 13.5723 8.49998 14.0772C7.53739 13.5723 6.16094 12.61 5.09026 11.647C3.12644 9.88073 2.12498 8.14573 2.12498 6.45988C2.12498 4.3546 3.45923 2.8333 5.28029 2.8333C6.06635 2.8333 6.55074 2.92651 7.1082 3.20223C7.43749 3.36509 7.72852 3.58014 7.98044 3.84889L8.50164 4.40488L9.0181 3.84448C9.27568 3.56497 9.57099 3.34502 9.90385 3.1821C10.445 2.91723 10.8991 2.8333 11.7223 2.8333C13.5208 2.84076 14.875 4.38381 14.875 6.45988Z" fill="#2F80ED"/>
</g>
</svg>
