<svg width="18" height="18" viewBox="0 0 18 18" fill="none" xmlns="http://www.w3.org/2000/svg">
<circle cx="9" cy="9" r="9" fill="#2F80ED"/>
<path fill-rule="evenodd" clip-rule="evenodd" d="M11.0697 5.00001C10.4116 5 9.98745 5.07712 9.50121 5.31127C9.32118 5.39796 9.15229 5.50236 8.99544 5.62416C8.84463 5.50919 8.68249 5.40958 8.50991 5.32561C8.01424 5.08442 7.56831 5 6.93388 5C5.23474 5 4 6.38504 4 8.18387C4 9.54234 4.76992 10.8546 6.20402 12.1235C6.95677 12.7896 7.91787 13.4487 8.60618 13.7994L9 14L9.39382 13.7994C10.0821 13.4487 11.0432 12.7896 11.796 12.1235C13.2301 10.8546 14 9.54234 14 8.18387C14 6.40408 12.7536 5.00687 11.0697 5.00001ZM13.0909 8.18387C13.0909 9.24817 12.4483 10.3435 11.1881 11.4586C10.501 12.0665 9.61771 12.674 9 12.9928C8.38229 12.674 7.49901 12.0665 6.81195 11.4586C5.55174 10.3435 4.90909 9.24817 4.90909 8.18387C4.90909 6.85478 5.76529 5.89436 6.93389 5.89436C7.43831 5.89436 7.74915 5.95321 8.10688 6.12727C8.31819 6.23009 8.50495 6.36586 8.66661 6.53552L9.00106 6.88652L9.33248 6.53273C9.49778 6.35628 9.68728 6.21742 9.90088 6.11457C10.2481 5.94735 10.5396 5.89436 11.0678 5.89437C12.2219 5.89907 13.0909 6.87322 13.0909 8.18387Z" fill="white"/>
</svg>
